# xmcd
#
# Track frame offsets: 
#        150
#        41107
#        81113
#        156658
#        166909
#        197907
#        226563
#        241830
#        272937
#
# Disc length: 4037 seconds
#
# Revision: 0
# Processed by: cddbd v1.5.2PL0 Copyright (c) Steve Scherf et al.
# Submitted via: ExactAudioCopy v1.0b1
#
DISCID=720fc309
DTITLE=Quatuor Talich - Beethoven  Integrale des Quatuors a Cordes CD7
DYEAR=2010
DGENRE=
TTITLE0=Quartet In A Minor, Op.132: 1. Assai sostenuto - Allegro
TTITLE1=Quartet In A Minor, Op.132: 2. Allegro ma non tanto 
TTITLE2=Quartet In A Minor, Op.132: 3. Canzona di ringraziamento. Molt
TTITLE2=o adagio - Sentendo nuova forza. Andante
TTITLE3=Quartet In A Minor, Op.132: 4. Alla marcia, assai vivace - Piu
TTITLE3=allegro - Presto
TTITLE4=Quartet In A Minor, Op.132: 5. Allegro appassionato 
TTITLE5=Quartet In F Major, Op.135: 1. Allegretto
TTITLE6=Quartet In F Major, Op.135: 2. Vivace
TTITLE7=Quartet In F Major, Op.135: 3. Lento assai, cantante e tranqui
TTITLE7=llo 
TTITLE8=Quartet In F Major, Op.135: 4. Der schwer gefasste Entschluss.
TTITLE8=Grave - Allegro - Grave ma non troppo tratto - Allegro
EXTD=
EXTT0=
EXTT1=
EXTT2=
EXTT3=
EXTT4=
EXTT5=
EXTT6=
EXTT7=
EXTT8=
PLAYORDER=
